# xmcd
#
# Track frame offsets: 
#        150
#        26341
#        41406
#        61286
#        75631
#        106887
#        121505
#        123172
#        164983
#
# Disc length: 2278 seconds
#
# Revision: 0
# Processed by: cddbd v1.5.2PL0 Copyright (c) Steve Scherf et al.
# Submitted via: ExactAudioCopyFreeDBPlugin 1.0
#
DISCID=6708e409
DTITLE=Ramsey Lewis - Ramsey
DYEAR=1979
DGENRE=Jazz+Funk
TTITLE0=Aquarius - Let The Sunshine In
TTITLE1=Wearin' It Out
TTITLE2=I Just Can't Give You Up
TTITLE3=Every Chance I Get (I'm Gonna Love You)
TTITLE4=Dancin'
TTITLE5=I'll Always Dream About You
TTITLE6=Medley: Intermezzo
TTITLE7=Spanoletta - Don't Cry For Me Argentina
TTITLE8=Intermezzo
EXTD=
EXTT0=
EXTT1=
EXTT2=
EXTT3=
EXTT4=
EXTT5=
EXTT6=
EXTT7=
EXTT8=
PLAYORDER=
